<svg width="48" height="48" viewBox="0 0 48 48" fill="none" xmlns="http://www.w3.org/2000/svg">
<path d="M23.9998 32.4707C23.2234 32.4707 22.5881 31.8354 22.5881 31.0589C22.5881 25.6236 18.141 21.1766 12.7057 21.1766C11.9292 21.1766 11.2939 20.5413 11.2939 19.7648C11.2939 18.9883 11.9292 18.353 12.7057 18.353C19.7292 18.353 25.4116 24.0354 25.4116 31.0589C25.4116 31.8354 24.7763 32.4707 23.9998 32.4707Z" fill="#1F2041" fill-opacity="0.25"/>
<path d="M36.7058 19.7648C36.7058 20.5413 36.0705 21.1766 35.2941 21.1766C31.9411 21.1766 28.9411 22.8707 27.1764 25.4471C26.7882 24.4589 26.3294 23.5413 25.7646 22.6942C28.0941 20.0119 31.5176 18.353 35.2941 18.353C36.0705 18.353 36.7058 18.9883 36.7058 19.7648Z" fill="#1F2041" fill-opacity="0.25"/>
<path d="M24 48C10.7647 48 0 37.2353 0 24C0 10.7647 10.7647 0 24 0C37.2353 0 48 10.7647 48 24C48 37.2353 37.2353 48 24 48ZM24 2.82353C12.3176 2.82353 2.82353 12.3176 2.82353 24C2.82353 35.6824 12.3176 45.1765 24 45.1765C35.6824 45.1765 45.1765 35.6824 45.1765 24C45.1765 12.3176 35.6824 2.82353 24 2.82353Z" fill="#1F2041" fill-opacity="0.25"/>
</svg>
